<?xml version="1.0" encoding="utf-8"?>
<!-- Generator: Adobe Illustrator 25.2.1, SVG Export Plug-In . SVG Version: 6.00 Build 0)  -->
<svg version="1.1" xmlns="http://www.w3.org/2000/svg" xmlns:xlink="http://www.w3.org/1999/xlink" x="0px" y="0px"
	 viewBox="0 0 47.56 42.67" style="enable-background:new 0 0 47.56 42.67;" xml:space="preserve">
<style type="text/css">
	.st0{display:none;}
	.st1{display:inline;fill:url(#SVGID_1_);}
	.st2{display:inline;}
	.st3{fill:url(#SVGID_2_);}
	.st4{fill:url(#SVGID_3_);}
	.st5{fill:url(#SVGID_4_);}
	.st6{fill:url(#SVGID_5_);}
	.st7{fill:url(#SVGID_6_);}
	.st8{fill:url(#SVGID_7_);}
	.st9{fill:url(#SVGID_8_);}
	.st10{fill:url(#SVGID_9_);}
	.st11{fill:url(#SVGID_10_);}
	.st12{fill:url(#SVGID_11_);}
	.st13{display:inline;fill:url(#SVGID_12_);}
	.st14{fill:url(#SVGID_13_);}
	.st15{fill:url(#SVGID_14_);}
	.st16{display:inline;fill:url(#SVGID_15_);}
	.st17{display:inline;fill:url(#SVGID_16_);}
	.st18{display:inline;fill:url(#SVGID_17_);}
	.st19{display:inline;fill:url(#SVGID_18_);}
	.st20{display:inline;fill:url(#SVGID_19_);}
	.st21{display:inline;fill:url(#SVGID_20_);}
	.st22{display:inline;fill:url(#SVGID_21_);}
	.st23{display:inline;fill:url(#SVGID_22_);}
	.st24{display:inline;fill:url(#SVGID_23_);}
	.st25{display:inline;fill:url(#SVGID_24_);}
	.st26{fill:url(#SVGID_25_);}
	.st27{fill:url(#SVGID_26_);}
	.st28{fill:url(#SVGID_27_);}
</style>
<g id="Clear_Sky_Day:_01d" class="st0">
	<linearGradient id="SVGID_1_" gradientUnits="userSpaceOnUse" x1="23.8963" y1="40.3532" x2="23.8963" y2="1.4087">
		<stop  offset="0" style="stop-color:#C225FF"/>
		<stop  offset="0.9095" style="stop-color:#1F6BFF"/>
	</linearGradient>
	<path class="st1" d="M20.19,20.16c-0.01,1.25-0.8,2.06-2.03,2.1c-1.35,0.05-2.23-0.8-2.22-2.15c0.01-1.25,0.79-2.06,2.03-2.1
		C19.33,17.96,20.21,18.81,20.19,20.16z M27.14,24.63c-1.02-0.06-2.04-0.01-3.05-0.01c0,0,0-0.01,0-0.01
		c-1.02,0-2.04-0.03-3.06,0.01c-1.2,0.05-1.53,0.54-1.18,1.63c0.54,1.69,1.92,2.53,4,2.64c2.12,0.11,3.62-0.89,4.24-2.63
		c0.03-0.07,0.05-0.15,0.07-0.22C28.36,25.16,28.06,24.68,27.14,24.63z M29.86,18.01c-1.25,0-2.06,0.78-2.11,2.02
		c-0.05,1.35,0.8,2.24,2.13,2.23c1.24-0.01,2.06-0.79,2.11-2.02C32.04,18.89,31.2,18,29.86,18.01z M43.33,20.85
		c0.03,1.07-0.34,1.95-1.03,2.62c-0.81,0.8-1.36,1.6-1.42,2.83c-0.05,1-0.6,1.99-1.31,2.71c-0.81,0.81-0.95,1.7-0.97,2.76
		c-0.04,2.4-1.35,3.66-3.82,3.72c-0.97,0.02-1.87,0.04-2.55,0.89c-0.23,0.29-0.62,0.48-0.97,0.64c-1.94,0.9-4.03,1.35-5.79,2.79
		c-1.24,1.01-2.91,0.51-4.1-0.59c-0.89-0.83-1.74-1.42-3.05-1.49c-0.79-0.04-1.73-0.52-2.3-1.09c-1-1.01-2.11-1.14-3.41-1.15
		c-1.79-0.02-3.27-1.49-3.29-3.28c-0.02-1.3-0.03-2.51-1.18-3.39c-0.12-0.09-0.17-0.26-0.24-0.4c-1.01-2.06-1.49-4.32-2.99-6.21
		c-0.92-1.16-0.39-2.76,0.63-3.9c0.8-0.89,1.48-1.7,1.53-3.03c0.04-0.97,0.6-1.98,1.35-2.68C9.22,11.85,9.3,11,9.32,10.03
		c0.05-2.48,1.31-3.79,3.7-3.83c1.06-0.02,1.93-0.17,2.77-0.95c0.85-0.79,1.94-1.38,3.17-1.38c0.89-0.01,1.42-0.49,2.02-1.02
		c2.16-1.92,3.82-1.91,6,0.03c0.6,0.54,1.15,0.97,2.03,1c1.22,0.03,2.3,0.62,3.16,1.41c0.77,0.71,1.55,0.91,2.54,0.92
		c2.63,0.04,3.84,1.26,3.89,3.88c0.02,0.99,0.11,1.85,0.93,2.53c0.29,0.24,0.48,0.63,0.62,0.98c0.8,1.99,1.26,4.13,2.84,5.75
		C43.4,19.74,43.34,20.37,43.33,20.85z M32,8.1c1.74,1.4,3.31,2.96,4.7,4.7c-0.01-0.69,0.14-1.36,0.25-2.04
		c0.28-1.71-1.2-3.18-2.91-2.91C33.36,7.97,32.7,8.12,32,8.1z M23.99,7.78c-7.78-0.02-13.11,5.33-13.08,13.1
		c0.02,7.79,5.4,12.64,13.16,13.15c7.82-0.63,13.07-5.61,12.96-13.35C36.93,12.97,31.71,7.8,23.99,7.78z M15.95,8.09
		c2.08-0.84,4.1-1.74,6.41-2.01c3.08-0.35,5.85,0.26,8.54,1.62c0.35,0.18,0.68,0.36,1.08,0.39c-0.62-1.67-1.81-2.5-3.59-2.32
		c-1.17,0.11-1.86-0.52-2.6-1.26c-1.58-1.56-2.08-1.56-3.66,0c-0.74,0.74-1.43,1.37-2.6,1.26C17.76,5.6,16.57,6.42,15.95,8.09z
		 M10.98,10.76c0.11,0.68,0.26,1.35,0.25,2.04c1.4-1.74,2.96-3.31,4.7-4.7c-0.69,0.01-1.36-0.14-2.04-0.25
		C12.18,7.58,10.7,9.06,10.98,10.76z M11.21,28.86c-0.83-2.08-1.74-4.1-2.01-6.41c-0.35-3.08,0.26-5.85,1.62-8.54
		c0.18-0.35,0.36-0.68,0.39-1.08c-1.67,0.62-2.5,1.81-2.32,3.59c0.11,1.17-0.52,1.86-1.25,2.6c-1.56,1.57-1.56,2.08,0,3.66
		c0.74,0.74,1.37,1.43,1.25,2.6C8.72,27.05,9.55,28.24,11.21,28.86z M15.93,33.58c-1.74-1.4-3.31-2.97-4.7-4.7
		c0.01,0.69-0.14,1.36-0.25,2.04c-0.28,1.71,1.2,3.18,2.91,2.91C14.57,33.72,15.24,33.57,15.93,33.58z M31.98,33.59
		c-0.66,0.01-1.18,0.39-1.73,0.66c-4.19,2.04-8.38,2.04-12.57,0c-0.55-0.27-1.07-0.65-1.73-0.66c0.62,1.67,1.81,2.5,3.59,2.32
		c1.17-0.11,1.86,0.52,2.6,1.26c1.58,1.56,2.08,1.56,3.66,0c0.74-0.74,1.43-1.37,2.6-1.26C30.17,36.09,31.37,35.26,31.98,33.59z
		 M36.96,30.92c-0.11-0.68-0.26-1.35-0.25-2.04c-1.4,1.74-2.96,3.31-4.7,4.7c0.69-0.01,1.36,0.14,2.04,0.25
		C35.76,34.11,37.23,32.63,36.96,30.92z M40.3,19.02c-0.74-0.74-1.37-1.43-1.26-2.6c0.18-1.78-0.66-2.97-2.33-3.59
		c0.01,0.66,0.39,1.18,0.66,1.73c2.04,4.19,2.04,8.38,0,12.57c-0.27,0.55-0.65,1.07-0.66,1.73c1.67-0.62,2.5-1.81,2.32-3.59
		c-0.12-1.17,0.52-1.86,1.26-2.6C41.86,21.09,41.86,20.59,40.3,19.02z M16.96,13.48c1.68-1.48,3.51-2.6,5.85-2.56
		c0.74,0.01,1.22-0.27,1.15-1.1c-0.07-0.75-0.63-0.79-1.68-0.81c-1.1,0.09-2.58,0.61-3.97,1.29c-1.11,0.55-2.1,1.36-2.91,2.34
		c-0.35,0.42-0.43,0.81-0.01,1.23c0.44,0.42,0.84,0.28,1.23-0.07C16.73,13.7,16.84,13.58,16.96,13.48z"/>
</g>
<g id="Clear_Sky_Night:_01n" class="st0">
	<g class="st2">
		<linearGradient id="SVGID_2_" gradientUnits="userSpaceOnUse" x1="22.511" y1="40.1693" x2="22.511" y2="4.4065">
			<stop  offset="0" style="stop-color:#C225FF"/>
			<stop  offset="0.9397" style="stop-color:#1F6BFF"/>
		</linearGradient>
		<path class="st3" d="M36.74,26.73c-1.9,0.27-3.82-0.09-5.55-0.66c-6.77-2.23-11.27-6.63-12.71-13.88
			c-0.31-1.55-0.39-3.07-0.41-4.62c-0.01-0.75-0.12-1.39-0.64-2.04c-1.17-1.49-3.35-1.43-4.86-0.24c-1.33,1.05-2.59,2.15-3.69,3.52
			c-2.27,2.84-3.75,6.02-4.14,9.52C4.18,23.4,5.07,28.17,8.42,32.4c3.97,5.02,8.9,7.76,15.31,7.77c1.65-0.05,3.25-0.06,4.87-0.51
			c4.58-1.28,8.24-3.84,11.05-7.62c0.83-1.11,1.07-2.48,0.41-3.72C39.4,27.08,38.23,26.51,36.74,26.73z M38.29,30.86
			c-1.51,2.67-3.94,4.36-6.52,5.78c-2.53,1.39-5.41,1.99-8.24,1.9c-3.09-0.1-6.14-0.86-8.81-2.58c-3.78-2.44-6.47-5.77-7.73-10.12
			c-0.36-1.24-0.54-2.53-0.72-3.75c-0.12-0.78-0.12-1.58,0-2.36c0.54-3.44,1.39-6.59,3.57-9.37c1.19-1.51,2.45-2.84,4.07-3.84
			c1.28-0.79,2.43-0.24,2.61,1.26c0.08,0.65,0.02,1.31,0.02,1.97c0,4.91,1.9,9,5.2,12.58c2.9,3.13,6.5,4.89,10.56,5.83
			c0.94,0.22,1.97,0.08,2.96,0.1c0.58,0.01,1.16-0.05,1.73,0.01C38.48,28.45,39.02,29.57,38.29,30.86z M36.12,30.42
			c0.35,0.32,0.37,0.79,0.07,1.11c-0.77,0.85-1.51,1.78-2.44,2.44c-2.93,2.05-6.11,3.46-9.88,3.2c-4.49,0.33-8.27-1.63-11.46-4.53
			c-2.56-2.33-3.98-5.53-4.73-8.95c-0.1-0.44,0.1-0.82,0.62-0.85c0.48-0.03,1.06-0.17,1.24,0.46c0.15,0.55,0.03,1.17,0.22,1.7
			c1.94,5.44,5.43,9.09,11.36,10.23c5.11,0.98,9.26-0.61,12.96-3.96c0.3-0.28,0.58-0.59,0.9-0.84
			C35.35,30.15,35.77,30.11,36.12,30.42z M10.76,24.08c-0.06-0.23-0.13-0.48-0.11-0.71c0.06-0.54,0.38-0.91,0.93-0.97
			c0.48-0.06,0.87,0.34,0.89,0.7c0.07,1.28,0.64,2.36,1.24,3.42c2.17,3.86,5.6,5.75,9.93,6.18c1.27,0.13,2.36-0.56,3.58-0.63
			c0.23-0.01,0.44-0.23,0.67-0.26c0.49-0.07,0.76,0.3,0.93,0.66c0.21,0.46-0.09,0.82-0.46,1c-1.43,0.71-2.96,0.84-4.41,0.73
			C17.94,34.65,12.37,30,10.76,24.08z"/>
		<linearGradient id="SVGID_3_" gradientUnits="userSpaceOnUse" x1="39.3081" y1="9.3868" x2="39.3081" y2="1.5925">
			<stop  offset="0.1005" style="stop-color:#C225FF"/>
			<stop  offset="0.9799" style="stop-color:#1F6BFF"/>
		</linearGradient>
		<path class="st4" d="M43.18,5.38c-0.07-0.26-0.28-0.35-0.53-0.4c-1.62-0.31-2.57-1.28-2.85-2.9c-0.04-0.26-0.16-0.45-0.55-0.49
			c-0.13,0.07-0.47,0.16-0.5,0.31c-0.36,1.7-1.54,2.56-3.05,3.18c-0.47,0.19-0.3,0.8,0.09,0.98c1.39,0.62,2.32,1.65,2.99,2.99
			c0.2,0.4,0.77,0.48,0.97-0.01c0.58-1.43,1.37-2.56,3.01-2.87C43.01,6.13,43.29,5.77,43.18,5.38z"/>
		<linearGradient id="SVGID_4_" gradientUnits="userSpaceOnUse" x1="31.9088" y1="18.9961" x2="31.9088" y2="11.9932">
			<stop  offset="0.1005" style="stop-color:#C225FF"/>
			<stop  offset="0.9799" style="stop-color:#1F6BFF"/>
		</linearGradient>
		<path class="st5" d="M34.91,15.04c-1.45-0.28-2.31-1.15-2.56-2.61c-0.04-0.23-0.15-0.4-0.5-0.44c-0.11,0.07-0.42,0.14-0.45,0.28
			c-0.33,1.53-1.38,2.3-2.74,2.86c-0.42,0.17-0.27,0.72,0.08,0.88c1.25,0.56,2.08,1.48,2.69,2.69c0.18,0.36,0.69,0.43,0.87-0.01
			c0.52-1.28,1.23-2.3,2.71-2.58c0.23-0.04,0.48-0.36,0.38-0.71C35.33,15.17,35.14,15.08,34.91,15.04z"/>
		<linearGradient id="SVGID_5_" gradientUnits="userSpaceOnUse" x1="25.4134" y1="8.583" x2="25.4134" y2="6.1582">
			<stop  offset="0.1005" style="stop-color:#C225FF"/>
			<stop  offset="0.9799" style="stop-color:#1F6BFF"/>
		</linearGradient>
		<path class="st6" d="M25.4,6.16c-0.17,0.01-1.32,1.2-1.24,1.28c0.45,0.43,0.88,1.01,1.42,1.14c0.25,0.06,0.75-0.75,1.08-1.22
			C26.75,7.23,25.59,6.14,25.4,6.16z"/>
	</g>
</g>
<g id="Few_Clouds_Day:_02d" class="st0">
	<g class="st2">
		<linearGradient id="SVGID_6_" gradientUnits="userSpaceOnUse" x1="23.4425" y1="35.5453" x2="23.4425" y2="10.5125">
			<stop  offset="0.0276" style="stop-color:#BC28FF"/>
			<stop  offset="0.9648" style="stop-color:#1F6BFF"/>
		</linearGradient>
		<path class="st7" d="M41.84,27.38c-0.19-2.15-1.57-3.81-3.85-4.07c-1.44-0.17-1.71-0.8-1.9-2.06c-0.44-2.92-2.79-5.26-5.63-5.44
			c-1.55-0.1-2.3-0.74-3.12-1.94c-1.83-2.68-5.52-3.91-8.51-3.09c-3.16,0.87-5.29,3.36-5.73,6.7c-0.24,1.84-0.24,1.87-2.06,1.99
			c-4.79,0.31-7.12,4.94-5.51,9.29c1.19,3.23,3.89,4.33,7.09,4.38c3.91,0.06,7.83,0.01,11.74,0.02c3.83,0,7.67-0.01,11.5,0.01
			c1.03,0.01,2.03-0.11,2.99-0.51C41.02,31.73,42.06,29.89,41.84,27.38z M37.63,30.99c-0.77,0.23-1.54,0.23-2.32,0.23
			c-3.76,0-7.51,0-11.27,0c-3.68,0-7.36,0-11.03,0c-0.86,0-1.72,0.01-2.54-0.33c-2.59-1.05-3.83-2.71-3.44-5.64
			c0.32-2.34,2.09-3.81,4.78-3.88c1.33-0.03,2.66-0.01,3.99-0.06c0.49-0.02,0.92-0.23,0.99-0.8c0.06-0.43-0.11-0.8-0.53-0.93
			c-1.79-0.54-1.35-1.93-1.05-3.08c0.62-2.43,3.85-4.37,6.47-4.02c2.71,0.36,4.9,2.66,5.07,5.32c0.01,0.08,0,0.16,0.01,0.23
			c0.12,0.8-0.36,1.98,0.76,2.22c1.35,0.28,1.04-1,1.23-1.76c0.13-0.53,0.47-0.78,0.99-0.84c2.46-0.28,4.61,1.98,4.48,4.59
			c-0.04,0.84-0.73,0.89-1.35,1.01c-0.41,0.08-0.76,0.3-0.69,0.77c0.06,0.46,0.47,0.62,0.87,0.62c1.49,0,2.96,0.17,4.42,0.49
			c1.83,0.39,2.42,1.06,2.48,2.84C39.99,29.76,39.44,30.45,37.63,30.99z M11.38,34.22h25.75v1.32H11.38V34.22z"/>
		<linearGradient id="SVGID_7_" gradientUnits="userSpaceOnUse" x1="33.0941" y1="23.2993" x2="33.0941" y2="6.2166">
			<stop  offset="0" style="stop-color:#1F6BFF"/>
			<stop  offset="1" style="stop-color:#C225FF"/>
		</linearGradient>
		<path class="st8" d="M35.19,12.4c-0.26,0.43-0.59,0.39-0.95,0.12c-1.12-0.86-2.41-0.98-3.75-0.86c-0.09,0.01-0.19,0.02-0.28,0.03
			c-0.32,0.03-0.56-0.04-0.62-0.41c-0.06-0.35,0.13-0.51,0.44-0.59c0.74-0.18,1.51-0.22,2.24-0.09c0.92,0.17,1.82,0.44,2.39,0.79
			C35.17,11.79,35.43,12.01,35.19,12.4z M42.19,17.77c-0.34,0.48-0.61,0.94-0.46,1.56c0.05,0.22,0.01,0.47-0.05,0.7
			c-0.28,1.08-0.73,2.13-0.72,3.27c-0.35-0.22-0.73-0.4-1.15-0.53c0-0.03,0-0.05-0.01-0.07c-0.09-0.62-0.15-1.18,0.32-1.71
			c0.72-0.8,0.75-1.67,0.16-2.57c-0.23,0.32-0.23,0.71-0.3,1.07c-0.22,1.16-0.61,2.18-1.18,3.08c-0.02,0-0.03,0-0.04-0.01
			c-0.47-0.04-0.82-0.14-1.1-0.29c2.67-3.76,1.98-8.1-1.73-10.86c-3.24-2.41-7.03-2.23-9.79,0.28c-0.25-0.25-0.51-0.48-0.79-0.69
			c0.6-0.52,1.27-0.97,2.02-1.34c0.21-0.11,0.42-0.2,0.57-0.38c-1.03-0.3-1.86-0.02-2.41,0.9c-0.15,0.26-0.35,0.42-0.56,0.54
			c-0.49-0.34-1.02-0.62-1.57-0.85c0.64-0.14,1.2-0.31,1.67-0.89c0.37-0.46,1-0.74,1.61-0.82c0.64-0.08,0.99-0.45,1.34-0.92
			c0.91-1.18,1.99-1.37,3.16-0.53c0.52,0.37,1,0.61,1.68,0.53c0.69-0.08,1.43,0.03,2.03,0.46c0.43,0.32,0.86,0.27,1.34,0.23
			c1.73-0.16,2.53,0.44,2.89,2.16c0.1,0.48,0.21,0.89,0.63,1.21c0.58,0.45,0.89,1.12,1.03,1.81c0.12,0.62,0.43,1,0.9,1.36
			C42.96,15.46,43.11,16.48,42.19,17.77z M31.93,8.69c-0.34-0.24-0.61-0.55-0.9-0.85c-0.73-0.75-1.97-0.56-2.45,0.37
			c-0.19,0.37-0.36,0.75-0.61,1.08C29.26,8.94,30.58,8.75,31.93,8.69z M39.7,14.44c0.3-1.03,0.02-1.86-0.9-2.41
			c-0.61-0.36-0.71-0.92-0.81-1.54c-0.2-1.32-0.45-1.5-1.77-1.31c-0.62,0.09-1.18,0.15-1.71-0.32c-0.8-0.72-1.67-0.75-2.57-0.16
			c1.31,0.34,2.61,0.62,3.82,1.33c1.61,0.93,2.74,2.22,3.55,3.84C39.42,14.08,39.51,14.28,39.7,14.44z M40.78,15.06
			c-0.37-0.19-0.75-0.36-1.08-0.61c0.34,1.3,0.54,2.62,0.59,3.96c0.24-0.34,0.55-0.61,0.85-0.9C41.89,16.78,41.71,15.54,40.78,15.06
			z"/>
	</g>
</g>
<g id="Few_Clouds_Night:_02n" class="st0">
	<g class="st2">
		<linearGradient id="SVGID_8_" gradientUnits="userSpaceOnUse" x1="22.8956" y1="39.1331" x2="22.8956" y2="14.1003">
			<stop  offset="0.0276" style="stop-color:#BC28FF"/>
			<stop  offset="0.9648" style="stop-color:#1F6BFF"/>
		</linearGradient>
		<path class="st9" d="M41.3,30.96c-0.19-2.15-1.57-3.81-3.85-4.07c-1.44-0.17-1.71-0.8-1.9-2.06c-0.44-2.92-2.79-5.26-5.63-5.44
			c-1.55-0.1-2.3-0.74-3.12-1.94c-1.83-2.68-5.52-3.91-8.51-3.09c-3.16,0.87-5.29,3.36-5.73,6.7c-0.24,1.84-0.24,1.87-2.06,1.99
			c-4.79,0.31-7.12,4.94-5.51,9.29c1.19,3.23,3.89,4.33,7.09,4.38c3.91,0.06,7.83,0.01,11.74,0.02c3.83,0,7.67-0.01,11.5,0.01
			c1.03,0.01,2.03-0.11,2.99-0.51C40.48,35.31,41.52,33.48,41.3,30.96z M37.08,34.58c-0.77,0.23-1.54,0.23-2.32,0.23
			c-3.76,0-7.51,0-11.27,0c-3.68,0-7.36,0-11.03,0c-0.86,0-1.72,0.01-2.54-0.33c-2.59-1.05-3.83-2.71-3.44-5.64
			c0.32-2.34,2.09-3.81,4.78-3.88c1.33-0.03,2.66-0.01,3.99-0.06c0.49-0.02,0.92-0.23,0.99-0.8c0.06-0.43-0.11-0.8-0.53-0.93
			c-1.79-0.54-1.35-1.93-1.05-3.08c0.62-2.43,3.85-4.37,6.47-4.02c2.71,0.36,4.9,2.66,5.07,5.32c0.01,0.08,0,0.16,0.01,0.23
			c0.12,0.8-0.36,1.98,0.76,2.22c1.35,0.28,1.04-1,1.23-1.76c0.13-0.53,0.47-0.78,0.99-0.84c2.46-0.28,4.61,1.98,4.48,4.59
			c-0.04,0.84-0.73,0.89-1.35,1.01c-0.41,0.08-0.76,0.3-0.69,0.77c0.06,0.46,0.47,0.62,0.87,0.62c1.49,0,2.96,0.17,4.42,0.49
			c1.83,0.39,2.42,1.06,2.48,2.84C39.44,33.35,38.9,34.03,37.08,34.58z M10.83,37.81h25.75v1.32H10.83V37.81z"/>
		<linearGradient id="SVGID_9_" gradientUnits="userSpaceOnUse" x1="8.7898" y1="17.0174" x2="8.7898" y2="12.2434">
			<stop  offset="0.0201" style="stop-color:#1F6BFF"/>
			<stop  offset="0.8844" style="stop-color:#C225FF"/>
		</linearGradient>
		<path class="st10" d="M10.84,14.32c-0.99-0.19-1.58-0.78-1.75-1.78c-0.03-0.16-0.1-0.27-0.34-0.3c-0.08,0.05-0.29,0.1-0.31,0.19
			C8.22,13.48,7.5,14,6.58,14.38c-0.29,0.12-0.18,0.49,0.06,0.6c0.85,0.38,1.42,1.01,1.83,1.83c0.12,0.25,0.47,0.3,0.59-0.01
			c0.36-0.88,0.84-1.57,1.85-1.76c0.15-0.03,0.33-0.25,0.26-0.48C11.12,14.41,10.99,14.35,10.84,14.32z"/>
		<linearGradient id="SVGID_10_" gradientUnits="userSpaceOnUse" x1="13.9139" y1="11.6261" x2="13.9139" y2="5.4645">
			<stop  offset="0.0201" style="stop-color:#1F6BFF"/>
			<stop  offset="0.8844" style="stop-color:#C225FF"/>
		</linearGradient>
		<path class="st11" d="M16.55,8.15c-1.28-0.24-2.03-1.01-2.25-2.29c-0.04-0.21-0.13-0.35-0.44-0.39c-0.1,0.06-0.37,0.13-0.4,0.25
			c-0.29,1.35-1.22,2.02-2.41,2.52C10.69,8.38,10.82,8.86,11.13,9c1.1,0.49,1.83,1.3,2.36,2.36c0.16,0.32,0.61,0.38,0.77-0.01
			c0.46-1.13,1.08-2.02,2.38-2.27c0.2-0.04,0.42-0.32,0.33-0.62C16.92,8.26,16.76,8.18,16.55,8.15z"/>
		<g>
			<linearGradient id="SVGID_11_" gradientUnits="userSpaceOnUse" x1="32.3381" y1="24.3746" x2="32.3381" y2="2.6288">
				<stop  offset="0" style="stop-color:#1F6BFF"/>
				<stop  offset="0.8593" style="stop-color:#C225FF"/>
			</linearGradient>
			<path class="st12" d="M43.1,17.29c-0.4-0.76-1.12-1.11-2.03-0.98c-1.17,0.17-2.34-0.06-3.41-0.41c-4.15-1.37-6.91-4.06-7.79-8.51
				c-0.19-0.95-0.24-1.88-0.25-2.83c-0.01-0.46-0.08-0.85-0.39-1.25c-0.72-0.91-2.06-0.88-2.98-0.15c-0.82,0.65-1.59,1.32-2.26,2.16
				c-1.39,1.74-2.3,3.69-2.54,5.84c-0.11,1.03-0.13,2.05-0.02,3.04c0.37,0.06,0.75,0.14,1.11,0.25c-0.06-0.33-0.1-0.66-0.15-0.97
				c-0.07-0.48-0.07-0.97,0-1.45c0.33-2.11,0.85-4.04,2.19-5.74c0.73-0.93,1.5-1.74,2.49-2.35c0.79-0.48,1.49-0.14,1.6,0.77
				c0.05,0.4,0.01,0.8,0.01,1.21c0,3.01,1.16,5.52,3.19,7.71c1.78,1.92,3.99,3,6.47,3.57c0.58,0.13,1.21,0.05,1.81,0.06
				c0.35,0.01,0.71-0.03,1.06,0.01c0.92,0.11,1.25,0.79,0.8,1.59c-0.93,1.64-2.42,2.67-4,3.54c-0.9,0.49-1.86,0.82-2.86,1
				c0.12,0.32,0.23,0.65,0.3,0.98c0.2-0.04,0.4-0.08,0.61-0.13c2.81-0.78,5.05-2.35,6.77-4.67C43.35,18.89,43.5,18.05,43.1,17.29z"
				/>
		</g>
	</g>
</g>
<g id="Cloudy:_03d_or_03n" class="st0">
	<linearGradient id="SVGID_12_" gradientUnits="userSpaceOnUse" x1="23.8963" y1="36.5525" x2="23.8963" y2="5.2094">
		<stop  offset="0" style="stop-color:#C225FF"/>
		<stop  offset="0.9196" style="stop-color:#1F6BFF"/>
	</linearGradient>
	<path class="st13" d="M30.18,10.08c0.09,0.13,0.13,0.29,0.2,0.44c-0.12,0.59-0.57,0.94-1.04,0.65c-1.4-0.86-2.71-0.93-4.1-0.02
		c-0.27,0.17-0.64,0.02-0.86-0.26c-0.24-0.31-0.1-0.59,0.1-0.87C25.65,8.51,29.13,8.53,30.18,10.08z M14.86,12.76
		c-2.11,0.16-4.53,2.45-4.86,4.64c-0.07,0.46-0.29,1.06,0.32,1.28c0.74,0.27,1.01-0.3,1.17-0.9c0.48-1.83,1.61-3,3.45-3.48
		c0.49-0.13,0.96-0.3,1-0.9C15.88,12.67,15.38,12.72,14.86,12.76z M43.01,27.93c-1.3,0.47-1.5,0.95-1.35,2.24
		c0.34,2.98-1.42,5.28-4.33,6.01c-1.21,0.3-2.44,0.38-3.68,0.38c-3.96-0.02-7.91-0.01-11.87-0.01c-3.87,0-7.75-0.01-11.62,0
		c-1.08,0-2.14-0.07-3.19-0.31c-2.81-0.66-4.89-2.81-5.3-5.54c-0.43-2.82,0.93-5.7,3.71-6.89c1.68-0.72,2.05-1.39,1.71-3.23
		C5.86,14.07,11.1,8.78,17.62,9.86c1.57,0.26,2.43,0.12,3.41-1.33C24.27,3.8,31.21,4.2,33.99,9.23c0.79,1.44,1.39,2.15,3.32,1.92
		c3.75-0.44,6.81,2.78,6.59,6.62c-0.07,1.16,0.13,1.96,0.93,2.85C47.23,23.3,46.41,26.7,43.01,27.93z M40.17,30.85
		c0-2.13-1.58-3.79-3.9-4.05c-0.82-0.09-1.65-0.04-2.47-0.1c-0.43-0.03-0.82-0.2-0.83-0.71c-0.01-0.36,0.2-0.63,0.57-0.7
		c1.74-0.32,1.38-1.62,1.19-2.71c-0.48-2.76-3.01-5.01-5.82-5.29c-2.82-0.29-3.2,0.02-3.49,2.82c-0.02,0.16-0.02,0.33-0.03,0.49
		c-0.04,0.44-0.21,0.84-0.7,0.86c-0.49,0.02-0.72-0.35-0.75-0.8c-0.04-0.66-0.02-1.32-0.07-1.98c-0.32-4.63-3.82-7.65-8.51-7.36
		c-4.24,0.26-7.18,3.86-6.82,8.38c0.13,1.62,0.37,3.19,2.55,3.24c0.41,0.01,0.8,0.25,0.83,0.75c0.03,0.64-0.42,0.87-0.94,0.9
		c-0.99,0.07-1.98,0.06-2.97,0.1c-1.69,0.05-3.01,0.81-3.94,2.2c-2.2,3.29-0.12,7.62,3.9,7.77c4.69,0.17,9.4,0.04,14.1,0.04
		c0,0,0,0,0,0.01c4.7,0,9.4,0.07,14.1-0.03C38.58,34.63,40.17,32.96,40.17,30.85z M44.6,23.73c-0.04-1.39-0.79-2.31-2.09-2.76
		c-0.46-0.16-0.97-0.16-1.46-0.25c-0.34-0.07-0.62-0.22-0.67-0.61c-0.04-0.37,0.13-0.68,0.48-0.74c1.32-0.21,1.45-1.15,1.41-1.96
		c-0.04-2.79-1.82-4.58-4.39-4.62c-0.89-0.02-1.84-0.08-2.45,0.82c-0.41,0.6-0.15,1.98-1.39,1.57c-0.94-0.3-0.55-1.42-0.66-2.2
		c-0.05-0.41-0.04-0.83-0.11-1.23c-0.42-2.42-2.34-4.35-4.73-4.79c-2.66-0.49-5.16,0.53-6.45,2.65c-0.29,0.48-0.81,1.08-0.41,1.58
		c1.14,1.4,2.28,2.79,3.28,4.3c0.35,0.52,1.07,0.33,1.63,0.23c4.74-0.84,9.41,2.7,9.98,7.99c0.05,0.48-0.14,1.17,0.35,1.37
		c1.72,0.68,3.25,2.07,5.33,1.49C43.65,26.18,44.65,25.05,44.6,23.73z M6.58,27.68c0.19-0.36,0.35-0.73,0.01-1.09
		c-0.47-0.36-0.72-0.04-0.98,0.29c-1.06,1.33-1.03,4.02,0.08,5.42c0.24,0.3,0.47,0.75,0.94,0.51c0.57-0.29,0.38-0.77,0.11-1.18
		C5.93,30.35,5.86,29.04,6.58,27.68z"/>
</g>
<g id="Really_Cloudy:_04d_or_04n" class="st0">
	<g class="st2">
		<linearGradient id="SVGID_13_" gradientUnits="userSpaceOnUse" x1="29.4383" y1="39.2628" x2="29.4383" y2="23.1057">
			<stop  offset="0.0276" style="stop-color:#BC28FF"/>
			<stop  offset="0.9648" style="stop-color:#1F6BFF"/>
		</linearGradient>
		<path class="st14" d="M42.57,35.14c-0.14-1.54-1.12-2.72-2.75-2.91c-1.03-0.12-1.22-0.57-1.36-1.47
			c-0.31-2.08-1.99-3.75-4.02-3.88c-1.1-0.07-1.64-0.53-2.23-1.39c-1.3-1.91-3.94-2.79-6.07-2.2c-2.26,0.62-3.77,2.4-4.09,4.78
			c-0.17,1.31-0.17,1.34-1.47,1.42c-3.42,0.22-5.08,3.52-3.93,6.63c0.85,2.3,2.77,3.09,5.06,3.13c2.79,0.04,5.58,0.01,8.38,0.01
			c2.74,0,5.47-0.01,8.21,0.01c0.74,0,1.45-0.08,2.13-0.36C41.98,38.24,42.73,36.93,42.57,35.14z M39.56,37.72
			c-0.55,0.16-1.1,0.16-1.66,0.16c-2.68,0-5.36,0-8.04,0c-2.62,0-5.25,0-7.87,0c-0.62,0-1.23,0-1.81-0.23
			c-1.85-0.75-2.74-1.93-2.45-4.02c0.23-1.67,1.49-2.72,3.41-2.77c0.95-0.02,1.9-0.01,2.85-0.04c0.35-0.01,0.66-0.17,0.71-0.57
			c0.04-0.31-0.08-0.57-0.38-0.66c-1.28-0.39-0.96-1.38-0.75-2.2c0.44-1.74,2.74-3.12,4.62-2.87c1.93,0.25,3.5,1.9,3.62,3.8
			c0,0.06,0,0.11,0,0.17c0.09,0.57-0.26,1.41,0.54,1.58c0.96,0.2,0.75-0.72,0.87-1.26c0.09-0.38,0.33-0.55,0.71-0.6
			c1.76-0.2,3.29,1.41,3.2,3.28c-0.03,0.6-0.52,0.63-0.97,0.72c-0.29,0.06-0.54,0.21-0.49,0.55c0.04,0.33,0.33,0.44,0.62,0.44
			c1.06,0,2.11,0.12,3.15,0.35c1.31,0.28,1.73,0.75,1.77,2.03C41.24,36.84,40.86,37.33,39.56,37.72z"/>
		<linearGradient id="SVGID_14_" gradientUnits="userSpaceOnUse" x1="23.8963" y1="33.8391" x2="23.8963" y2="2.499">
			<stop  offset="0" style="stop-color:#C225FF"/>
			<stop  offset="0.9196" style="stop-color:#1F6BFF"/>
		</linearGradient>
		<path class="st15" d="M30.18,7.37c0.09,0.13,0.13,0.29,0.2,0.44c-0.12,0.59-0.57,0.94-1.04,0.65c-1.4-0.86-2.71-0.93-4.1-0.02
			c-0.27,0.17-0.64,0.02-0.86-0.26c-0.24-0.31-0.1-0.59,0.1-0.87C25.65,5.8,29.13,5.82,30.18,7.37z M6.6,23.89
			c-0.47-0.36-0.72-0.04-0.98,0.29c-1.06,1.33-1.03,4.02,0.08,5.42c0.24,0.3,0.47,0.75,0.94,0.51c0.57-0.29,0.38-0.77,0.11-1.18
			c-0.82-1.29-0.89-2.6-0.17-3.95C6.77,24.62,6.93,24.24,6.6,23.89z M43.01,25.22c-1.3,0.47-1.5,0.95-1.35,2.24
			c0.23,1.98,0.05,3.1-1.3,4.22c0.31-0.27,0,0,0,0c-0.83-0.1-1-0.35-1.16-0.93c1.01-0.69,0.97-1.32,0.97-2.62
			c0-2.13-1.58-3.79-3.9-4.05c-0.82-0.09-1.65-0.04-2.47-0.1c-0.43-0.03-0.82-0.2-0.83-0.71c-0.01-0.36,0.2-0.63,0.57-0.7
			c1.74-0.32,1.38-1.62,1.19-2.71c-0.48-2.76-3.01-5.01-5.82-5.29c-2.82-0.29-3.2,0.02-3.49,2.82c-0.02,0.16-0.02,0.33-0.03,0.49
			c-0.04,0.44-0.21,0.84-0.7,0.86c-0.49,0.02-0.72-0.35-0.75-0.8c-0.04-0.66-0.02-1.32-0.07-1.98c-0.32-4.63-3.82-7.65-8.51-7.36
			c-4.24,0.26-7.18,3.86-6.82,8.38c0.13,1.62,0.37,3.19,2.55,3.24c0.41,0.01,0.8,0.25,0.83,0.75c0.03,0.64-0.42,0.87-0.94,0.9
			c-0.99,0.07-1.98,0.06-2.97,0.1c-1.69,0.05-3.01,0.81-3.94,2.2c-2.2,3.29-0.12,7.62,3.9,7.77c2.93,0.11,5.19,0.1,8.13,0.07
			c-0.26,0.56-0.42,1.17-0.46,1.82c-2.05,0-3.42,0-5.47,0c-1.08,0-2.14-0.07-3.19-0.31c-2.81-0.66-4.89-2.81-5.3-5.54
			c-0.43-2.82,0.93-5.7,3.71-6.89c1.68-0.72,2.05-1.39,1.71-3.23C5.86,11.36,11.1,6.07,17.62,7.15c1.57,0.26,2.43,0.12,3.41-1.33
			c3.24-4.73,10.18-4.33,12.96,0.69c0.79,1.44,1.39,2.15,3.32,1.92c3.75-0.44,6.81,2.78,6.59,6.62c-0.07,1.16,0.13,1.96,0.93,2.85
			C47.23,20.59,46.41,23.99,43.01,25.22z M44.6,21.02c-0.04-1.39-0.79-2.31-2.09-2.76c-0.46-0.16-0.97-0.16-1.46-0.25
			c-0.34-0.07-0.62-0.22-0.67-0.61c-0.04-0.37,0.13-0.68,0.48-0.74c1.32-0.21,1.45-1.15,1.41-1.96c-0.04-2.79-1.82-4.58-4.39-4.62
			C37,10.07,36.05,10,35.44,10.9c-0.41,0.6-0.15,1.98-1.39,1.57c-0.94-0.3-0.55-1.42-0.66-2.2c-0.05-0.41-0.04-0.83-0.11-1.23
			c-0.42-2.42-2.34-4.35-4.73-4.79c-2.66-0.49-5.16,0.53-6.45,2.65c-0.29,0.48-0.81,1.08-0.41,1.58c1.14,1.4,2.28,2.79,3.28,4.3
			c0.35,0.52,1.07,0.33,1.63,0.23c4.74-0.84,9.41,2.7,9.98,7.99c0.05,0.48-0.14,1.17,0.35,1.37c1.72,0.68,3.25,2.07,5.33,1.49
			C43.65,23.47,44.65,22.33,44.6,21.02z M14.86,10.05c-2.11,0.16-4.53,2.45-4.86,4.64c-0.07,0.46-0.29,1.06,0.32,1.28
			c0.74,0.27,1.01-0.3,1.17-0.9c0.48-1.83,1.61-3,3.45-3.48c0.49-0.13,0.96-0.3,1-0.9C15.88,9.96,15.38,10.01,14.86,10.05z"/>
	</g>
</g>
<g id="Rain:_09d_or_09n" class="st0">
	<linearGradient id="SVGID_15_" gradientUnits="userSpaceOnUse" x1="23.8963" y1="29.3491" x2="23.8963" y2="4.2653">
		<stop  offset="0.0276" style="stop-color:#BC28FF"/>
		<stop  offset="0.9648" style="stop-color:#1F6BFF"/>
	</linearGradient>
	<path class="st16" d="M44.28,22.95c-0.21-2.39-1.74-4.22-4.26-4.51c-1.6-0.19-1.89-0.89-2.1-2.29c-0.49-3.23-3.1-5.83-6.24-6.03
		c-1.71-0.11-2.55-0.82-3.46-2.15C26.19,5,22.09,3.64,18.78,4.54c-3.5,0.96-5.86,3.72-6.34,7.43c-0.27,2.04-0.26,2.08-2.29,2.2
		c-5.31,0.34-7.89,5.47-6.11,10.29c1.32,3.58,4.31,4.8,7.85,4.85c4.33,0.07,8.67,0.02,13,0.02c4.25,0,8.5-0.01,12.74,0.01
		c1.14,0.01,2.25-0.12,3.31-0.56C43.37,27.77,44.53,25.73,44.28,22.95z M39.61,26.95c-0.85,0.25-1.71,0.25-2.58,0.25
		c-4.16,0-8.32,0-12.48,0c-4.07,0-8.15,0-12.22,0c-0.96,0-1.91,0.01-2.82-0.36c-2.87-1.17-4.25-3-3.81-6.24
		c0.35-2.6,2.32-4.23,5.3-4.3c1.47-0.03,2.95-0.02,4.42-0.06c0.55-0.02,1.02-0.26,1.1-0.89c0.06-0.48-0.12-0.89-0.59-1.03
		c-1.98-0.6-1.49-2.14-1.17-3.41c0.69-2.7,4.26-4.84,7.17-4.45c3,0.39,5.43,2.95,5.62,5.9c0.01,0.09-0.01,0.17,0.01,0.26
		c0.13,0.88-0.4,2.19,0.84,2.45c1.49,0.31,1.16-1.11,1.36-1.95c0.14-0.59,0.52-0.86,1.1-0.93c2.73-0.31,5.1,2.19,4.96,5.09
		c-0.05,0.93-0.81,0.98-1.5,1.12c-0.46,0.09-0.84,0.33-0.77,0.85c0.07,0.51,0.52,0.69,0.96,0.69c1.65,0,3.28,0.19,4.89,0.54
		c2.03,0.44,2.68,1.17,2.75,3.15C42.22,25.59,41.62,26.35,39.61,26.95z"/>
	<linearGradient id="SVGID_16_" gradientUnits="userSpaceOnUse" x1="18.2298" y1="33.4237" x2="18.2298" y2="23.9801">
		<stop  offset="0.1935" style="stop-color:#BC28FF"/>
		<stop  offset="0.9045" style="stop-color:#1F6BFF"/>
	</linearGradient>
	<path class="st17" d="M21.77,29.93c0,1.93-1.58,3.49-3.54,3.49s-3.54-1.56-3.54-3.49c0-3.18,2.06-5.95,3.54-5.95
		C19.71,23.98,21.77,27.56,21.77,29.93z"/>
	<linearGradient id="SVGID_17_" gradientUnits="userSpaceOnUse" x1="29.2693" y1="38.2654" x2="29.2693" y2="26.4557">
		<stop  offset="0.1935" style="stop-color:#BC28FF"/>
		<stop  offset="0.9045" style="stop-color:#1F6BFF"/>
	</linearGradient>
	<path class="st18" d="M33.43,33.9c0,2.41-1.86,4.37-4.16,4.37s-4.16-1.96-4.16-4.37c0-3.98,2.42-7.44,4.16-7.44
		S33.43,30.93,33.43,33.9z"/>
</g>
<g id="More_Rainy:_10d_or_10n" class="st0">
	<linearGradient id="SVGID_18_" gradientUnits="userSpaceOnUse" x1="23.8963" y1="29.3491" x2="23.8963" y2="4.2653">
		<stop  offset="0.0276" style="stop-color:#BC28FF"/>
		<stop  offset="0.9648" style="stop-color:#1F6BFF"/>
	</linearGradient>
	<path class="st19" d="M44.28,22.95c-0.21-2.39-1.74-4.22-4.26-4.51c-1.6-0.19-1.89-0.89-2.1-2.29c-0.49-3.23-3.1-5.83-6.24-6.03
		c-1.71-0.11-2.55-0.82-3.46-2.15C26.19,5,22.09,3.64,18.78,4.54c-3.5,0.96-5.86,3.72-6.34,7.43c-0.27,2.04-0.26,2.08-2.29,2.2
		c-5.31,0.34-7.89,5.47-6.11,10.29c1.32,3.58,4.31,4.8,7.85,4.85c4.33,0.07,8.67,0.02,13,0.02c4.25,0,8.5-0.01,12.74,0.01
		c1.14,0.01,2.25-0.12,3.31-0.56C43.37,27.77,44.53,25.73,44.28,22.95z M39.61,26.95c-0.85,0.25-1.71,0.25-2.58,0.25
		c-4.16,0-8.32,0-12.48,0c-4.07,0-8.15,0-12.22,0c-0.96,0-1.91,0.01-2.82-0.36c-2.87-1.17-4.25-3-3.81-6.24
		c0.35-2.6,2.32-4.23,5.3-4.3c1.47-0.03,2.95-0.02,4.42-0.06c0.55-0.02,1.02-0.26,1.1-0.89c0.06-0.48-0.12-0.89-0.59-1.03
		c-1.98-0.6-1.49-2.14-1.17-3.41c0.69-2.7,4.26-4.84,7.17-4.45c3,0.39,5.43,2.95,5.62,5.9c0.01,0.09-0.01,0.17,0.01,0.26
		c0.13,0.88-0.4,2.19,0.84,2.45c1.49,0.31,1.16-1.11,1.36-1.95c0.14-0.59,0.52-0.86,1.1-0.93c2.73-0.31,5.1,2.19,4.96,5.09
		c-0.05,0.93-0.81,0.98-1.5,1.12c-0.46,0.09-0.84,0.33-0.77,0.85c0.07,0.51,0.52,0.69,0.96,0.69c1.65,0,3.28,0.19,4.89,0.54
		c2.03,0.44,2.68,1.17,2.75,3.15C42.22,25.59,41.62,26.35,39.61,26.95z"/>
	<linearGradient id="SVGID_19_" gradientUnits="userSpaceOnUse" x1="18.2298" y1="33.4237" x2="18.2298" y2="23.9801">
		<stop  offset="0.1935" style="stop-color:#BC28FF"/>
		<stop  offset="0.9045" style="stop-color:#1F6BFF"/>
	</linearGradient>
	<path class="st20" d="M21.77,29.93c0,1.93-1.58,3.49-3.54,3.49s-3.54-1.56-3.54-3.49c0-3.18,2.06-5.95,3.54-5.95
		C19.71,23.98,21.77,27.56,21.77,29.93z"/>
	<linearGradient id="SVGID_20_" gradientUnits="userSpaceOnUse" x1="29.2693" y1="38.2654" x2="29.2693" y2="26.4557">
		<stop  offset="0.1935" style="stop-color:#BC28FF"/>
		<stop  offset="0.9045" style="stop-color:#1F6BFF"/>
	</linearGradient>
	<path class="st21" d="M33.43,33.9c0,2.41-1.86,4.37-4.16,4.37s-4.16-1.96-4.16-4.37c0-3.98,2.42-7.44,4.16-7.44
		S33.43,30.93,33.43,33.9z"/>
</g>
<g id="Thunder:_11d_or_11n" class="st0">
	<linearGradient id="SVGID_21_" gradientUnits="userSpaceOnUse" x1="23.8963" y1="41.3461" x2="23.8963" y2="0.4157">
		<stop  offset="0.0829" style="stop-color:#BC28FF"/>
		<stop  offset="0.9095" style="stop-color:#1F6BFF"/>
	</linearGradient>
	<path class="st22" d="M40.02,16.09c-0.6-1.2-1.74-1.66-3.1-1.69c-2.01-0.03-4.02-0.08-6.02-0.02c-2,0.06-2.45-0.59-1.58-2.22
		c1.51-2.84,3-5.7,4.39-8.59c0.93-1.93,0.04-3.16-2.14-3.16c-1.2-0.05-2.1,0.49-2.85,1.27c-6.73,7-13.46,14-20.17,21.02
		c-0.8,0.84-1.35,1.82-0.76,2.97c0.62,1.19,1.76,1.65,3.12,1.67c1.82,0.04,3.65,0.08,5.47,0.02c2.35-0.08,2.64,0.77,1.7,2.56
		c-1.46,2.77-2.83,5.59-4.09,8.44c-0.82,1.86,0.29,3.07,2.49,2.96c1.2-0.06,2.03-0.67,2.77-1.43c6.67-6.94,13.34-13.88,19.98-20.84
		C40.03,18.23,40.6,17.25,40.02,16.09z M37.17,18.37c-6.4,6.71-12.83,13.4-19.26,20.09c-0.34,0.36-0.73,0.78-1.69,0.52
		c0.56-2.59,2.19-4.81,3.2-7.23c0.58-1.4,1.27-2.76,2-4.1c1-1.84,0.21-2.37-1.78-2.34c-2.64,0.05-5.29,0.02-7.94-0.01
		c-1.63-0.02-2.37-0.59-1.08-1.94c6.4-6.71,12.83-13.4,19.26-20.09c0.36-0.37,0.78-0.7,2.01-0.62C29.93,6.49,28.1,10,26.34,13.53
		c-1.36,2.73-1.24,2.86,2.08,2.88c2.55,0.01,5.11-0.01,7.66,0.02C37.72,16.46,38.45,17.02,37.17,18.37z M23.32,18.97
		c0,1.33-1.18,2.41-2.64,2.41c-1.46,0-2.64-1.08-2.64-2.41H23.32z M25.17,18.97h5.29c0,1.33-1.18,2.41-2.64,2.41
		C26.35,21.38,25.17,20.3,25.17,18.97z M22.58,22.69h3.59v0.69h-3.59V22.69z"/>
</g>
<g id="Snow:_13d_or_13n" class="st0">
	<linearGradient id="SVGID_22_" gradientUnits="userSpaceOnUse" x1="24.1081" y1="24.4303" x2="24.1081" y2="1.7877">
		<stop  offset="0.0276" style="stop-color:#BC28FF"/>
		<stop  offset="0.9648" style="stop-color:#1F6BFF"/>
	</linearGradient>
	<path class="st23" d="M25.01,24.41c-3.91,0-7.83,0.04-11.74-0.02c-3.2-0.05-5.89-1.15-7.09-4.38c-1.61-4.35,0.72-8.98,5.51-9.29
		c1.83-0.12,1.82-0.15,2.06-1.99c0.44-3.35,2.57-5.84,5.73-6.7c2.99-0.82,6.69,0.41,8.51,3.09c0.82,1.2,1.58,1.84,3.12,1.94
		c2.84,0.18,5.19,2.53,5.63,5.44c0.19,1.26,0.45,1.9,1.9,2.06c2.27,0.26,3.66,1.92,3.85,4.07c0.22,2.51-0.82,4.35-3.01,5.27
		c-0.95,0.4-1.95,0.51-2.99,0.51C32.68,24.4,28.85,24.42,25.01,24.41z M24.7,22.5c3.76,0,7.51,0,11.27,0c0.78,0,1.56,0,2.32-0.23
		c1.82-0.54,2.36-1.23,2.3-3.01c-0.06-1.78-0.65-2.44-2.48-2.84c-1.46-0.31-2.93-0.49-4.42-0.49c-0.4,0-0.81-0.16-0.87-0.62
		c-0.06-0.47,0.28-0.69,0.69-0.77c0.62-0.12,1.31-0.17,1.35-1.01c0.13-2.62-2.02-4.88-4.48-4.59C29.87,9,29.53,9.25,29.4,9.77
		c-0.18,0.76,0.12,2.05-1.23,1.76c-1.12-0.23-0.63-1.42-0.76-2.22c-0.01-0.08,0-0.16-0.01-0.23c-0.17-2.66-2.37-4.97-5.07-5.32
		c-2.63-0.35-5.86,1.59-6.47,4.02c-0.29,1.15-0.74,2.54,1.05,3.08c0.42,0.13,0.59,0.5,0.53,0.93c-0.07,0.57-0.5,0.78-1,0.8
		c-1.33,0.04-2.66,0.03-3.99,0.06C9.78,12.72,8,14.19,7.69,16.53c-0.39,2.93,0.85,4.58,3.44,5.64c0.82,0.33,1.68,0.33,2.54,0.33
		C17.35,22.49,21.02,22.5,24.7,22.5z M14.11,13.53c-0.85,0.04-1.73-0.01-2.56,0.15c-1.63,0.3-2.72,1.56-2.94,3.22
		c-0.22,1.67,0.52,3.19,1.94,3.92c0.58,0.3,1.23,0.49,1.64-0.21c0.33-0.56,0.05-1.05-0.51-1.34c-0.5-0.25-0.93-0.54-1.09-1.13
		c-0.36-1.31,0.42-2.47,1.9-2.6c1.32-0.12,2.65-0.05,3.97-0.1c0.49-0.02,0.93-0.23,0.99-0.8c0.07-0.7-0.39-0.99-1-1.02
		c-0.78-0.04-1.56-0.01-2.34-0.01C14.11,13.58,14.11,13.56,14.11,13.53z M17.89,6.4c-0.34,0.41-0.9,0.82-0.38,1.4
		c0.46,0.52,1.1,0.64,1.67,0.11c1.64-1.54,3.23-1.85,4.82,0.06c0.09,0.11,0.26,0.19,0.41,0.22c0.5,0.1,0.94-0.06,1.24-0.46
		c0.31-0.4,0.04-0.73-0.2-1.05c-0.97-1.26-2.28-1.86-3.9-2.02C20.16,4.79,18.86,5.23,17.89,6.4z"/>
	<linearGradient id="SVGID_23_" gradientUnits="userSpaceOnUse" x1="23.4078" y1="41.0465" x2="24.6592" y2="33.9499">
		<stop  offset="0.2312" style="stop-color:#1F6BFF"/>
		<stop  offset="0.8417" style="stop-color:#BC28FF"/>
		<stop  offset="0.8492" style="stop-color:#C225FF"/>
	</linearGradient>
	<path class="st24" d="M20.33,35.68c-0.07,1.35-1.82,3.03-3.13,2.98c-1.31-0.04-3.23-1.91-3.23-3.13c0-1.3,1.81-2.91,3.24-2.88
		C18.55,32.69,20.39,34.47,20.33,35.68z M30.88,36.32c-1.37,0.05-3.17,1.84-3.08,3.06c0.11,1.38,1.85,3.02,3.15,2.95
		c1.34-0.07,3.22-1.93,3.19-3.17C34.11,37.86,32.29,36.27,30.88,36.32z"/>
	<linearGradient id="SVGID_24_" gradientUnits="userSpaceOnUse" x1="23.4665" y1="33.522" x2="24.1409" y2="25.813">
		<stop  offset="0.1608" style="stop-color:#1F6BFF"/>
		<stop  offset="0.8417" style="stop-color:#BC28FF"/>
		<stop  offset="0.8492" style="stop-color:#C225FF"/>
	</linearGradient>
	<path class="st25" d="M27.79,29.13c-0.12,1.36-1.95,2.86-3.36,2.74c-1.35-0.11-3-1.72-2.99-2.9c0.02-1.49,1.77-3.16,3.27-3.11
		C26.24,25.92,27.92,27.7,27.79,29.13z M8.48,25.87c-1.43-0.04-3.38,1.87-3.33,3.26c0.06,1.53,1.53,2.8,3.2,2.75
		c1.55-0.04,2.74-1.47,2.71-3.22C11.04,27.15,9.89,25.91,8.48,25.87z M38.95,28.88c-1.4,0.05-2.55,1.29-2.57,2.8
		c-0.03,1.75,1.17,3.17,2.72,3.21c1.67,0.04,3.14-1.23,3.19-2.76C42.34,30.74,40.38,28.83,38.95,28.88z"/>
</g>
<g id="Wind:_50d_or_50n">
	<linearGradient id="SVGID_25_" gradientUnits="userSpaceOnUse" x1="24.0595" y1="37.3727" x2="24.0595" y2="6.3614">
		<stop  offset="0" style="stop-color:#C225FF"/>
		<stop  offset="0.9095" style="stop-color:#1F6BFF"/>
	</linearGradient>
	<path class="st26" d="M42.35,19.42c-1.36,2.06-3.13,3.39-5.72,3.38c-4.36-0.02-8.73-0.01-13.09-0.01c-3.97,0-7.95,0-11.92,0
		c-0.47,0-0.94-0.01-1.4,0c-0.71,0.02-1.22-0.12-1.19-1.01c0.03-0.75,0.46-0.89,1.08-0.88c0.55,0.01,1.09,0,1.64,0
		c8.1,0,16.21-0.01,24.31,0.01c1.69,0,3.21-0.3,4.39-1.66c1.99-2.29,0.77-6.7-2.66-7.24c-0.38-0.06-0.78-0.01-1.02-0.4
		c-0.38-0.61,0.1-1.51,0.84-1.47c1.98,0.11,3.65,0.98,4.63,2.69C43.43,14.94,43.83,17.19,42.35,19.42z M16.65,19.04
		c1.17,0,2.34,0,3.5,0c0,0,0,0,0,0c1.01,0,2.02-0.01,3.04,0c4.3,0.03,7.34-4.5,5.57-8.78c-1.21-2.93-3.28-4.08-6.68-3.89
		c-2.7,0.15-5.23,2.76-5.53,5.64c-0.06,0.53,0.18,0.9,0.77,0.92c0.48,0.01,0.96,0.01,1.06-0.62c0.07-0.46,0.09-0.91,0.32-1.34
		c0.86-1.62,2.04-2.63,3.99-2.73c2.08-0.11,3.69,0.94,4.36,2.55c1.11,2.66-0.2,6.01-3.72,6.34c-1.77,0.17-3.58,0.03-5.37,0.03
		c-0.47,0-0.95-0.04-1.4,0.05c-0.59,0.12-0.96,0.53-0.92,1.16C15.67,19.01,16.17,19.04,16.65,19.04z M33.94,28.01
		c-1.29-2.91-3.69-4.05-6.63-4.27c-1.86-0.13-3.75-0.03-5.62-0.03c-0.94,0-1.88-0.03-2.81,0.02c-0.77,0.04-1.07,0.52-0.92,1.24
		c0.14,0.63,0.6,0.63,1.07,0.63c2.81,0.01,5.62-0.04,8.43,0.02c2.13,0.05,4.34,1.55,4.8,3.43c0.51,2.08,0.4,3.81-1.33,5.33
		c-1.53,1.35-3.26,1.23-5.05,0.79c-0.44-0.11-0.82-0.49-1.26-0.58c-0.64-0.12-0.95,0.45-1.27,0.87c-0.28,0.37,0.1,0.6,0.33,0.72
		c2.3,1.17,4.63,1.78,7.07,0.34c2.3-1.36,3.77-3.19,3.59-5.95C34.34,29.66,34.31,28.85,33.94,28.01z M13.59,23.72
		c-2.57,0.01-5.14,0.01-7.7,0c-0.62,0-1.05,0.14-1.07,0.88C4.78,25.49,5.3,25.62,6,25.61c1.24-0.01,2.49,0,3.73,0s2.49-0.01,3.73,0
		c0.7,0.01,1.22-0.12,1.19-1C14.63,23.86,14.21,23.72,13.59,23.72z M13.62,19.04c0.59,0.03,1.01-0.12,1.04-0.87
		c0.03-0.87-0.46-1.02-1.17-1.02c-0.7,0-1.21,0.12-1.19,1C12.33,19.09,12.95,19.05,13.62,19.04z"/>
	<linearGradient id="SVGID_26_" gradientUnits="userSpaceOnUse" x1="29.6516" y1="34.3877" x2="29.6516" y2="27.0198">
		<stop  offset="0.2965" style="stop-color:#C225FF"/>
		<stop  offset="1" style="stop-color:#1F6BFF"/>
	</linearGradient>
	<path class="st27" d="M27.78,33.26c0.04,1.27,0.24,1.35,1.33,0.82c0.58-0.28,1.01-0.71,1.42-1.17c2.02-2.25,0.75-4.93-1.52-5.77
		c-0.79-0.29-1.17-0.08-1.21,0.78c-0.05,0.93-0.01,1.86-0.01,2.78c0,0,0,0,0,0C27.77,31.56,27.75,32.41,27.78,33.26z"/>
	<linearGradient id="SVGID_27_" gradientUnits="userSpaceOnUse" x1="31.0916" y1="14.5554" x2="31.9216" y2="11.4577">
		<stop  offset="0" style="stop-color:#C225FF"/>
		<stop  offset="0.9095" style="stop-color:#1F6BFF"/>
	</linearGradient>
	<path class="st28" d="M26.27,11.82c0.07,0.2,0.05,0.45,0.06,0.58c-0.17,0.56-1.24,0.8-1.59,0.33c-0.55-0.75-1.17-1.37-1.92-1.92
		c-0.39-0.29-0.3-0.89-0.07-1.28c0.29-0.49,0.76-0.31,1.22-0.14C25.15,9.83,25.86,10.68,26.27,11.82z M37.28,12.97
		c-0.31,0.06-0.51,0.22-0.58,0.58c-0.16,0.85,2.12,3.24,3.01,3.13c0.44-0.05,0.71-0.28,0.68-0.74
		C40.3,14.57,38.56,12.92,37.28,12.97z"/>
</g>
</svg>
